# xmcd CD database file
#
# Track frame offsets:
#	225
#	24891
#	36705
#	57056
#	69193
#	83007
#	94215
#	105067
#	120964
#	133456
#	146183
#	158576
#	167618
#	179670
#	190583
#	205227
#	213210
#	227304
#	242698
#	255711
#	270583
#	285659
#	299249
#	312343
#	333467
#
# Disc length: 4778 seconds
#
# Revision: 1
# Processed by: cddbd v1.5.2PL0 Copyright (c) Steve Scherf et al.
# Submitted via: CDex 1.51
#
DISCID=6612a719
DTITLE=Various Artist - Music from Trooping the Colour Queen Victoria 1964-1899 (Regimental Band of the Coldstream Guards)
DYEAR=2007
DGENRE=Classique
TTITLE0=Albert Edward and Alexandra Wedding March  (Jules Benedict)
TTITLE1=Il Bacio  (Arditi)
TTITLE2=Parade March - Le Médecin Malgré Lui  (Gounod arr. A.F Godfrey)
TTITLE3=Fra Diavolo  (Auber arr. D.Godfrey)
TTITLE4=Wolkonsky Marsch  (Carl Konze)
TTITLE5=Kriegerische Wiegen Lieder Marsch  (J.Srauss)
TTITLE6=Gemma di Vergy  (Donizetti arr. Kulmer)
TTITLE7=Luxenburg  (Millars)
TTITLE8=Gut Heil  (Hamm)
TTITLE9=Quick March - On Ballads by Colonel Bruce  (Colonel Michael Bruce arr. D.Godfrey)
TTITLE10=Kriegers Abschied  (Rudolph Piefke arr. H. Froehnert)
TTITLE11=Rendezvous  (Zikoff arr. H.Froehnert)
TTITLE12=Gamerra  (Gung'l arr. J.Hecker)
TTITLE13=The Vagabond - on Molloy's Popular Song  (H.Basquit)
TTITLE14=Nabucco  (Verdi arr. Le Thire)
TTITLE15=Let the Hills Resound  (Richard arr.J.Riviere)
TTITLE16=La Favorita  (Donizzetti arr. DanGodfrey)
TTITLE17=The Sultan of Mocha  (Alfred Cellier arr. J.Riviere)
TTITLE18=Madame L'Archiduc  (Offenbach arr. J.Hecker)
TTITLE19=Madame Romaine  (Gounod)
TTITLE20=Farwell March  (Warterson)
TTITLE21=Forward March  (Joseph H.Doppler)
TTITLE22=The Royal Guards  (Le Thiere)
TTITLE23=Aennchen von Tharau  (Heinrich Hofmann arr. G.Miller)
TTITLE24=Parade March  (Albert Williams)
EXTD=YEAR: 2007
EXTT0=
EXTT1=
EXTT2=
EXTT3=
EXTT4=
EXTT5=
EXTT6=
EXTT7=
EXTT8=
EXTT9=
EXTT10=
EXTT11=
EXTT12=
EXTT13=
EXTT14=
EXTT15=
EXTT16=
EXTT17=
EXTT18=
EXTT19=
EXTT20=
EXTT21=
EXTT22=
EXTT23=
EXTT24=
PLAYORDER=
